<svg xmlns="http://www.w3.org/2000/svg" xmlns:xlink="http://www.w3.org/1999/xlink" xmlns:lucid="lucid" width="1440" height="1060"><g transform="translate(-400 -180)" lucid:page-tab-id="0_0"><path d="M0 0h1870.87v1322.83H0z" fill="#fff"/><path d="M420 306c0-3.3 2.7-6 6-6h1388c3.3 0 6 2.7 6 6v908c0 3.3-2.7 6-6 6H426c-3.3 0-6-2.7-6-6z" stroke="#5e5e5e" stroke-width="3" fill="#fff"/><path d="M420 206c0-3.3 2.7-6 6-6h208c3.3 0 6 2.7 6 6v88c0 3.3-2.7 6-6 6H426c-3.3 0-6-2.7-6-6z" stroke="#5e5e5e" stroke-width="3" fill="#e5e5e5"/><use xlink:href="#a" transform="matrix(1,0,0,1,432,212) translate(61.32407407407409 44.472222222222214)"/><path d="M480 546c0-3.3 2.7-6 6-6h1248c3.3 0 6 2.7 6 6v108c0 3.3-2.7 6-6 6H486c-3.3 0-6-2.7-6-6z" stroke="#5e5e5e" stroke-width="3" fill="#fff"/><use xlink:href="#b" transform="matrix(1,0,0,1,492,552) translate(494.86111111111114 53.11111111111111)"/><use xlink:href="#c" transform="matrix(1,0,0,1,492,552) translate(592.0401234567901 53.11111111111111)"/><path d="M480 766c0-3.3 2.7-6 6-6h1248c3.3 0 6 2.7 6 6v268c0 3.3-2.7 6-6 6H486c-3.3 0-6-2.7-6-6z" stroke="#333" stroke-width="3" fill="#e5e5e5"/><path d="M640 826c0-3.3 2.7-6 6-6h268c3.3 0 6 2.7 6 6v108c0 3.3-2.7 6-6 6H646c-3.3 0-6-2.7-6-6z" stroke="#5e5e5e" stroke-width="3" fill="#fff"/><use xlink:href="#d" transform="matrix(1,0,0,1,652,832) translate(73.37345679012347 52.55555555555556)"/><use xlink:href="#e" transform="matrix(1,0,0,1,652,832) translate(151.45987654320987 52.55555555555556)"/><path d="M980 826c0-3.3 2.7-6 6-6h148c3.3 0 6 2.7 6 6v108c0 3.3-2.7 6-6 6H986c-3.3 0-6-2.7-6-6z" stroke="#5e5e5e" stroke-width="3" fill="#fff"/><use xlink:href="#f" transform="matrix(1,0,0,1,992,832) translate(38.25925925925927 52.55555555555556)"/><path d="M480 986c0-3.3 2.7-6 6-6h248c3.3 0 6 2.7 6 6v48c0 3.3-2.7 6-6 6H486c-3.3 0-6-2.7-6-6z" stroke="#5e5e5e" stroke-width="3" fill="#ccc"/><use xlink:href="#g" transform="matrix(1,0,0,1,492,992) translate(0.7006172839506632 21.805555555555554)"/><use xlink:href="#h" transform="matrix(1,0,0,1,492,992) translate(109.1388888888889 21.805555555555554)"/><path d="M1200 826c0-3.3 2.7-6 6-6h148c3.3 0 6 2.7 6 6v108c0 3.3-2.7 6-6 6h-148c-3.3 0-6-2.7-6-6z" stroke="#5e5e5e" stroke-width="3" fill="#fff"/><use xlink:href="#i" transform="matrix(1,0,0,1,1212,832) translate(9.672839506172856 52.55555555555556)"/><use xlink:href="#e" transform="matrix(1,0,0,1,1212,832) translate(95.16049382716048 52.55555555555556)"/><path d="M1420 826c0-3.3 2.7-6 6-6h148c3.3 0 6 2.7 6 6v108c0 3.3-2.7 6-6 6h-148c-3.3 0-6-2.7-6-6z" stroke="#5e5e5e" stroke-width="3" fill="#fff"/><use xlink:href="#j" transform="matrix(1,0,0,1,1432,832) translate(18.500000000000007 52.55555555555556)"/><path d="M770.67 662.5V800" stroke="#5e5e5e" stroke-width="2" fill="none"/><path d="M771.67 662.53h-2v-1.03h2z" fill="#5e5e5e"/><path d="M770.67 815.26L766.03 801h9.27z" stroke="#5e5e5e" stroke-width="2" fill="#5e5e5e"/><path d="M1054.67 662.5V800" stroke="#5e5e5e" stroke-width="2" fill="none"/><path d="M1055.67 662.53h-2v-1.03h2z" fill="#5e5e5e"/><path d="M1054.67 815.26l-4.64-14.26h9.27z" stroke="#5e5e5e" stroke-width="2" fill="#5e5e5e"/><path d="M1290.67 662.5V800" stroke="#5e5e5e" stroke-width="2" fill="none"/><path d="M1291.67 662.53h-2v-1.03h2z" fill="#5e5e5e"/><path d="M1290.67 815.26l-4.64-14.26h9.27z" stroke="#5e5e5e" stroke-width="2" fill="#5e5e5e"/><path d="M1504 662.5V800" stroke="#5e5e5e" stroke-width="2" fill="none"/><path d="M1505 662.53h-2v-1.03h2z" fill="#5e5e5e"/><path d="M1504 815.26l-4.64-14.26h9.28z" stroke="#5e5e5e" stroke-width="2" fill="#5e5e5e"/><path d="M480 326c0-3.3 2.7-6 6-6h1248c3.3 0 6 2.7 6 6v108c0 3.3-2.7 6-6 6H486c-3.3 0-6-2.7-6-6z" stroke="#5e5e5e" stroke-width="3" fill="#fff"/><use xlink:href="#k" transform="matrix(1,0,0,1,492,332) translate(428.89814814814815 53.111111111111114)"/><use xlink:href="#l" transform="matrix(1,0,0,1,492,332) translate(526.6388888888889 53.111111111111114)"/><use xlink:href="#m" transform="matrix(1,0,0,1,492,332) translate(590.5956790123457 53.111111111111114)"/><use xlink:href="#n" transform="matrix(1,0,0,1,492,332) translate(662.7376543209876 53.111111111111114)"/><path d="M1111 520h-2v-20.72h2zm0-52.72h-2V442.5h2z" fill="#5e5e5e"/><path d="M1111 442.53h-2v-1.03h2zM1110 535.26l-4.64-14.26h9.28z" fill="#5e5e5e"/><path d="M1110 538.5l-6-18.5h12zm-3.26-16.5l3.26 10.03 3.26-10.03z" fill="#5e5e5e"/><use xlink:href="#o" transform="matrix(1,0,0,1,998.4074074074074,467.2813852813853) translate(0 21.333333333333332)"/><use xlink:href="#p" transform="matrix(1,0,0,1,998.4074074074074,467.2813852813853) translate(97.48148148148148 21.333333333333332)"/><path d="M977.5 880H940" stroke="#5e5e5e" stroke-width="2" fill="none"/><path d="M978.5 881h-1.03v-2h1.03z" fill="#5e5e5e"/><path d="M924.74 880l14.26-4.64v9.28z" stroke="#5e5e5e" stroke-width="2" fill="#5e5e5e"/><path d="M480 1086c0-3.3 2.7-6 6-6h1248c3.3 0 6 2.7 6 6v108c0 3.3-2.7 6-6 6H486c-3.3 0-6-2.7-6-6z" stroke="#5e5e5e" stroke-width="3" fill="#fff"/><g><use xlink:href="#q" transform="matrix(1,0,0,1,492,1092) translate(583.8796296296297 53.66666666666666)"/></g><path d="M780 942.5V1060" stroke="#5e5e5e" stroke-width="2" fill="none"/><path d="M781 942.53h-2v-1.03h2z" fill="#5e5e5e"/><path d="M780 1075.26l-4.64-14.26h9.28z" stroke="#5e5e5e" stroke-width="2" fill="#5e5e5e"/><path d="M1280 942.5V1060" stroke="#5e5e5e" stroke-width="2" fill="none"/><path d="M1281 942.53h-2v-1.03h2z" fill="#5e5e5e"/><path d="M1280 1075.26l-4.64-14.26h9.28z" stroke="#5e5e5e" stroke-width="2" fill="#5e5e5e"/><defs><path fill="#333" d="M147 0H94L2-248h55l64 206c17-72 42-137 63-206h54" id="r"/><path fill="#333" d="M76-208v77h127v40H76V0H24v-248h183v40H76" id="s"/><path fill="#333" d="M169-182c-1-43-94-46-97-3 18 66 151 10 154 114 3 95-165 93-204 36-6-8-10-19-12-30l50-8c3 46 112 56 116 5-17-69-150-10-154-114-4-87 153-88 188-35 5 8 8 18 10 28" id="t"/><g id="a"><use transform="matrix(0.10493827160493824,0,0,0.10493827160493824,0,0)" xlink:href="#r"/><use transform="matrix(0.10493827160493824,0,0,0.10493827160493824,25.185185185185176,0)" xlink:href="#s"/><use transform="matrix(0.10493827160493824,0,0,0.10493827160493824,48.16666666666665,0)" xlink:href="#t"/></g><path fill="#333" d="M25-224v-37h50v37H25zM25 0v-190h50V0H25" id="u"/><path fill="#333" d="M135-150c-39-12-60 13-60 57V0H25l-1-190h47c2 13-1 29 3 40 6-28 27-53 61-41v41" id="v"/><path fill="#333" d="M115-3C79 11 28 4 28-45v-112H4v-33h27l15-45h31v45h36v33H77v99c-1 23 16 31 38 25v30" id="w"/><path fill="#333" d="M85 4C-2 5 27-109 22-190h50c7 57-23 150 33 157 60-5 35-97 40-157h50l1 190h-47c-2-12 1-28-3-38-12 25-28 42-61 42" id="x"/><path fill="#333" d="M133-34C117-15 103 5 69 4 32 3 11-16 11-54c-1-60 55-63 116-61 1-26-3-47-28-47-18 1-26 9-28 27l-52-2c7-38 36-58 82-57s74 22 75 68l1 82c-1 14 12 18 25 15v27c-30 8-71 5-69-32zm-48 3c29 0 43-24 42-57-32 0-66-3-65 30 0 17 8 27 23 27" id="y"/><path fill="#333" d="M25 0v-261h50V0H25" id="z"/><g id="b"><use transform="matrix(0.0802469135802469,0,0,0.0802469135802469,0,0)" xlink:href="#r"/><use transform="matrix(0.0802469135802469,0,0,0.0802469135802469,18.697530864197528,0)" xlink:href="#u"/><use transform="matrix(0.0802469135802469,0,0,0.0802469135802469,26.722222222222218,0)" xlink:href="#v"/><use transform="matrix(0.0802469135802469,0,0,0.0802469135802469,37.956790123456784,0)" xlink:href="#w"/><use transform="matrix(0.0802469135802469,0,0,0.0802469135802469,47.50617283950616,0)" xlink:href="#x"/><use transform="matrix(0.0802469135802469,0,0,0.0802469135802469,65.08024691358023,0)" xlink:href="#y"/><use transform="matrix(0.0802469135802469,0,0,0.0802469135802469,81.1296296296296,0)" xlink:href="#z"/></g><path fill="#333" d="M185-48c-13 30-37 53-82 52C43 2 14-33 14-96s30-98 90-98c62 0 83 45 84 108H66c0 31 8 55 39 56 18 0 30-7 34-22zm-45-69c5-46-57-63-70-21-2 6-4 13-4 21h74" id="A"/><path fill="#333" d="M137-138c1-29-70-34-71-4 15 46 118 7 119 86 1 83-164 76-172 9l43-7c4 19 20 25 44 25 33 8 57-30 24-41C81-84 22-81 20-136c-2-80 154-74 161-7" id="B"/><path fill="#333" d="M123 10C108 53 80 86 19 72V37c35 8 53-11 59-39L3-190h52l48 148c12-52 28-100 44-148h51" id="C"/><path fill="#333" d="M220-157c-53 9-28 100-34 157h-49v-107c1-27-5-49-29-50C55-147 81-57 75 0H25l-1-190h47c2 12-1 28 3 38 10-53 101-56 108 0 13-22 24-43 59-42 82 1 51 116 57 194h-49v-107c-1-25-5-48-29-50" id="D"/><g id="c"><use transform="matrix(0.0802469135802469,0,0,0.0802469135802469,0,0)" xlink:href="#s"/><use transform="matrix(0.0802469135802469,0,0,0.0802469135802469,17.57407407407407,0)" xlink:href="#u"/><use transform="matrix(0.0802469135802469,0,0,0.0802469135802469,25.59876543209876,0)" xlink:href="#z"/><use transform="matrix(0.0802469135802469,0,0,0.0802469135802469,33.62345679012345,0)" xlink:href="#A"/><use transform="matrix(0.0802469135802469,0,0,0.0802469135802469,49.67283950617283,0)" xlink:href="#B"/><use transform="matrix(0.0802469135802469,0,0,0.0802469135802469,65.7222222222222,0)" xlink:href="#C"/><use transform="matrix(0.0802469135802469,0,0,0.0802469135802469,81.77160493827158,0)" xlink:href="#B"/><use transform="matrix(0.0802469135802469,0,0,0.0802469135802469,97.82098765432096,0)" xlink:href="#w"/><use transform="matrix(0.0802469135802469,0,0,0.0802469135802469,107.37037037037035,0)" xlink:href="#A"/><use transform="matrix(0.0802469135802469,0,0,0.0802469135802469,123.41975308641973,0)" xlink:href="#D"/></g><path fill="#333" d="M199 0l-22-63H83L61 0H9l90-248h61L250 0h-51zm-33-102l-36-108c-10 38-24 72-36 108h72" id="E"/><path fill="#333" d="M136-208V0H84v-208H4v-40h212v40h-80" id="F"/><path fill="#333" d="M128-127c34 4 56 21 59 58 7 91-148 94-172 28-4-9-6-17-7-26l51-5c1 24 16 35 40 36 23 0 39-12 38-36-1-31-31-36-65-34v-40c32 2 59-3 59-33 0-20-13-33-34-33s-33 13-35 32l-50-3c6-44 37-68 86-68 50 0 83 20 83 66 0 35-22 52-53 58" id="G"/><path fill="#333" d="M182-182c0 78-84 86-111 141h115V0H12c-6-101 99-100 120-180 1-22-12-31-33-32-23 0-32 14-35 34l-49-3c5-45 32-70 84-70 51 0 83 22 83 69" id="H"/><g id="d"><use transform="matrix(0.06790123456790122,0,0,0.06790123456790122,0,0)" xlink:href="#s"/><use transform="matrix(0.06790123456790122,0,0,0.06790123456790122,13.512345679012341,0)" xlink:href="#E"/><use transform="matrix(0.06790123456790122,0,0,0.06790123456790122,29.265432098765423,0)" xlink:href="#F"/><use transform="matrix(0.06790123456790122,0,0,0.06790123456790122,44.13580246913579,0)" xlink:href="#G"/><use transform="matrix(0.06790123456790122,0,0,0.06790123456790122,57.71604938271604,0)" xlink:href="#H"/></g><g id="e"><use transform="matrix(0.06790123456790122,0,0,0.06790123456790122,0,0)" xlink:href="#s"/><use transform="matrix(0.06790123456790122,0,0,0.06790123456790122,14.870370370370367,0)" xlink:href="#t"/></g><path fill="#333" d="M24 0v-248h52v208h133V0H24" id="I"/><path fill="#333" d="M110-194c64 0 96 36 96 99 0 64-35 99-97 99-61 0-95-36-95-99 0-62 34-99 96-99zm-1 164c35 0 45-28 45-65 0-40-10-65-43-65-34 0-45 26-45 65 0 36 10 65 43 65" id="J"/><path fill="#333" d="M135-194c53 0 70 44 70 98 0 56-19 98-73 100-31 1-45-17-59-34 3 33 2 69 2 105H25l-1-265h48c2 10 0 23 3 31 11-24 29-35 60-35zM114-30c33 0 39-31 40-66 0-38-9-64-40-64-56 0-55 130 0 130" id="K"/><g id="f"><use transform="matrix(0.06790123456790122,0,0,0.06790123456790122,0,0)" xlink:href="#I"/><use transform="matrix(0.06790123456790122,0,0,0.06790123456790122,14.870370370370367,0)" xlink:href="#J"/><use transform="matrix(0.06790123456790122,0,0,0.06790123456790122,29.740740740740733,0)" xlink:href="#J"/><use transform="matrix(0.06790123456790122,0,0,0.06790123456790122,44.6111111111111,0)" xlink:href="#K"/></g><path fill="#333" d="M190-63c-7 42-38 67-86 67-59 0-84-38-90-98-12-110 154-137 174-36l-49 2c-2-19-15-32-35-32-30 0-35 28-38 64-6 74 65 87 74 30" id="L"/><path fill="#333" d="M121-226c-27-7-43 5-38 36h38v33H83V0H34v-157H6v-33h28c-9-59 32-81 87-68v32" id="M"/><path fill="#333" d="M88-194c31-1 46 15 58 34l-1-101h50l1 261h-48c-2-10 0-23-3-31C134-8 116 4 84 4 32 4 16-41 15-95c0-56 19-97 73-99zm17 164c33 0 40-30 41-66 1-37-9-64-41-64s-38 30-39 65c0 43 13 65 39 65" id="N"/><g id="g"><use transform="matrix(0.06790123456790122,0,0,0.06790123456790122,0,0)" xlink:href="#t"/><use transform="matrix(0.06790123456790122,0,0,0.06790123456790122,16.29629629629629,0)" xlink:href="#K"/><use transform="matrix(0.06790123456790122,0,0,0.06790123456790122,31.166666666666657,0)" xlink:href="#A"/><use transform="matrix(0.06790123456790122,0,0,0.06790123456790122,44.7469135802469,0)" xlink:href="#L"/><use transform="matrix(0.06790123456790122,0,0,0.06790123456790122,58.32716049382714,0)" xlink:href="#u"/><use transform="matrix(0.06790123456790122,0,0,0.06790123456790122,65.11728395061726,0)" xlink:href="#M"/><use transform="matrix(0.06790123456790122,0,0,0.06790123456790122,73.1975308641975,0)" xlink:href="#A"/><use transform="matrix(0.06790123456790122,0,0,0.06790123456790122,86.77777777777774,0)" xlink:href="#N"/></g><g id="h"><use transform="matrix(0.06790123456790122,0,0,0.06790123456790122,0,0)" xlink:href="#s"/><use transform="matrix(0.06790123456790122,0,0,0.06790123456790122,14.870370370370367,0)" xlink:href="#u"/><use transform="matrix(0.06790123456790122,0,0,0.06790123456790122,21.660493827160487,0)" xlink:href="#z"/><use transform="matrix(0.06790123456790122,0,0,0.06790123456790122,28.450617283950606,0)" xlink:href="#A"/><use transform="matrix(0.06790123456790122,0,0,0.06790123456790122,42.030864197530846,0)" xlink:href="#B"/><use transform="matrix(0.06790123456790122,0,0,0.06790123456790122,55.611111111111086,0)" xlink:href="#C"/><use transform="matrix(0.06790123456790122,0,0,0.06790123456790122,69.19135802469133,0)" xlink:href="#B"/><use transform="matrix(0.06790123456790122,0,0,0.06790123456790122,82.77160493827157,0)" xlink:href="#w"/><use transform="matrix(0.06790123456790122,0,0,0.06790123456790122,90.85185185185179,0)" xlink:href="#A"/><use transform="matrix(0.06790123456790122,0,0,0.06790123456790122,104.43209876543204,0)" xlink:href="#D"/></g><path fill="#333" d="M24-248c120-7 223 5 221 122C244-46 201 0 124 0H24v-248zM76-40c74 7 117-18 117-86 0-67-45-88-117-82v168" id="O"/><path fill="#333" d="M128 0H69L1-190h53L99-40l48-150h52" id="P"/><g id="i"><use transform="matrix(0.06790123456790122,0,0,0.06790123456790122,0,0)" xlink:href="#O"/><use transform="matrix(0.06790123456790122,0,0,0.06790123456790122,17.586419753086414,0)" xlink:href="#A"/><use transform="matrix(0.06790123456790122,0,0,0.06790123456790122,31.166666666666657,0)" xlink:href="#P"/><use transform="matrix(0.06790123456790122,0,0,0.06790123456790122,44.7469135802469,0)" xlink:href="#u"/><use transform="matrix(0.06790123456790122,0,0,0.06790123456790122,51.53703703703702,0)" xlink:href="#A"/><use transform="matrix(0.06790123456790122,0,0,0.06790123456790122,65.11728395061726,0)" xlink:href="#B"/></g><path fill="#333" d="M140-251c80 0 125 45 125 126S219 4 139 4C58 4 15-44 15-125s44-126 125-126zm-1 214c52 0 73-35 73-88 0-50-21-86-72-86-52 0-73 35-73 86s22 88 72 88" id="Q"/><path fill="#333" d="M114-157C55-157 80-60 75 0H25v-261h50l-1 109c12-26 28-41 61-42 86-1 58 113 63 194h-50c-7-57 23-157-34-157" id="R"/><path fill="#333" d="M24 0v-54h51V0H24" id="S"/><g id="j"><use transform="matrix(0.06790123456790122,0,0,0.06790123456790122,0,0)" xlink:href="#Q"/><use transform="matrix(0.06790123456790122,0,0,0.06790123456790122,19.01234567901234,0)" xlink:href="#w"/><use transform="matrix(0.06790123456790122,0,0,0.06790123456790122,27.092592592592588,0)" xlink:href="#R"/><use transform="matrix(0.06790123456790122,0,0,0.06790123456790122,41.962962962962955,0)" xlink:href="#A"/><use transform="matrix(0.06790123456790122,0,0,0.06790123456790122,55.5432098765432,0)" xlink:href="#v"/><use transform="matrix(0.06790123456790122,0,0,0.06790123456790122,65.04938271604937,0)" xlink:href="#B"/><use transform="matrix(0.06790123456790122,0,0,0.06790123456790122,78.6296296296296,0)" xlink:href="#S"/><use transform="matrix(0.06790123456790122,0,0,0.06790123456790122,85.41975308641973,0)" xlink:href="#S"/><use transform="matrix(0.06790123456790122,0,0,0.06790123456790122,92.20987654320986,0)" xlink:href="#S"/></g><path fill="#333" d="M195 0l-88-114-31 24V0H24v-248h52v113l112-113h60L142-143 257 0h-62" id="T"/><path fill="#333" d="M135-194c87-1 58 113 63 194h-50c-7-57 23-157-34-157-59 0-34 97-39 157H25l-1-190h47c2 12-1 28 3 38 12-26 28-41 61-42" id="U"/><g id="k"><use transform="matrix(0.08024691358024691,0,0,0.08024691358024691,0,0)" xlink:href="#T"/><use transform="matrix(0.08024691358024691,0,0,0.08024691358024691,20.78395061728395,0)" xlink:href="#A"/><use transform="matrix(0.08024691358024691,0,0,0.08024691358024691,36.83333333333333,0)" xlink:href="#v"/><use transform="matrix(0.08024691358024691,0,0,0.08024691358024691,48.0679012345679,0)" xlink:href="#U"/><use transform="matrix(0.08024691358024691,0,0,0.08024691358024691,65.64197530864197,0)" xlink:href="#A"/><use transform="matrix(0.08024691358024691,0,0,0.08024691358024691,81.69135802469135,0)" xlink:href="#z"/></g><g id="l"><use transform="matrix(0.08024691358024691,0,0,0.08024691358024691,0,0)" xlink:href="#E"/><use transform="matrix(0.08024691358024691,0,0,0.08024691358024691,20.78395061728395,0)" xlink:href="#U"/><use transform="matrix(0.08024691358024691,0,0,0.08024691358024691,38.358024691358025,0)" xlink:href="#N"/></g><path fill="#333" d="M238-95c0 69-44 99-111 99C63 4 22-25 22-93v-155h51v151c-1 38 19 59 55 60 90 1 49-130 58-211h52v153" id="V"/><g id="m"><use transform="matrix(0.08024691358024691,0,0,0.08024691358024691,0,0)" xlink:href="#V"/><use transform="matrix(0.08024691358024691,0,0,0.08024691358024691,20.78395061728395,0)" xlink:href="#B"/><use transform="matrix(0.08024691358024691,0,0,0.08024691358024691,36.83333333333333,0)" xlink:href="#A"/><use transform="matrix(0.08024691358024691,0,0,0.08024691358024691,52.8827160493827,0)" xlink:href="#v"/></g><path fill="#333" d="M24-248c93 1 206-16 204 79-1 75-69 88-152 82V0H24v-248zm52 121c47 0 100 7 100-41 0-47-54-39-100-39v80" id="W"/><g id="n"><use transform="matrix(0.08024691358024691,0,0,0.08024691358024691,0,0)" xlink:href="#W"/><use transform="matrix(0.08024691358024691,0,0,0.08024691358024691,19.25925925925926,0)" xlink:href="#v"/><use transform="matrix(0.08024691358024691,0,0,0.08024691358024691,30.49382716049383,0)" xlink:href="#J"/><use transform="matrix(0.08024691358024691,0,0,0.08024691358024691,48.0679012345679,0)" xlink:href="#L"/><use transform="matrix(0.08024691358024691,0,0,0.08024691358024691,64.11728395061728,0)" xlink:href="#A"/><use transform="matrix(0.08024691358024691,0,0,0.08024691358024691,80.16666666666666,0)" xlink:href="#B"/><use transform="matrix(0.08024691358024691,0,0,0.08024691358024691,96.21604938271605,0)" xlink:href="#B"/><use transform="matrix(0.08024691358024691,0,0,0.08024691358024691,112.2654320987654,0)" xlink:href="#A"/><use transform="matrix(0.08024691358024691,0,0,0.08024691358024691,128.3148148148148,0)" xlink:href="#B"/></g><g id="o"><use transform="matrix(0.07407407407407407,0,0,0.07407407407407407,0,0)" xlink:href="#V"/><use transform="matrix(0.07407407407407407,0,0,0.07407407407407407,19.185185185185183,0)" xlink:href="#U"/><use transform="matrix(0.07407407407407407,0,0,0.07407407407407407,35.407407407407405,0)" xlink:href="#u"/><use transform="matrix(0.07407407407407407,0,0,0.07407407407407407,42.81481481481481,0)" xlink:href="#M"/><use transform="matrix(0.07407407407407407,0,0,0.07407407407407407,51.629629629629626,0)" xlink:href="#u"/><use transform="matrix(0.07407407407407407,0,0,0.07407407407407407,59.03703703703703,0)" xlink:href="#A"/><use transform="matrix(0.07407407407407407,0,0,0.07407407407407407,73.85185185185185,0)" xlink:href="#N"/></g><path fill="#333" d="M24 0v-248h52V0H24" id="X"/><g id="p"><use transform="matrix(0.07407407407407407,0,0,0.07407407407407407,0,0)" xlink:href="#X"/><use transform="matrix(0.07407407407407407,0,0,0.07407407407407407,7.4074074074074066,0)" xlink:href="#U"/><use transform="matrix(0.07407407407407407,0,0,0.07407407407407407,23.629629629629623,0)" xlink:href="#w"/><use transform="matrix(0.07407407407407407,0,0,0.07407407407407407,32.44444444444444,0)" xlink:href="#A"/><use transform="matrix(0.07407407407407407,0,0,0.07407407407407407,47.259259259259245,0)" xlink:href="#v"/><use transform="matrix(0.07407407407407407,0,0,0.07407407407407407,57.62962962962962,0)" xlink:href="#M"/><use transform="matrix(0.07407407407407407,0,0,0.07407407407407407,66.44444444444443,0)" xlink:href="#y"/><use transform="matrix(0.07407407407407407,0,0,0.07407407407407407,81.25925925925924,0)" xlink:href="#L"/><use transform="matrix(0.07407407407407407,0,0,0.07407407407407407,96.07407407407405,0)" xlink:href="#A"/><use transform="matrix(0.07407407407407407,0,0,0.07407407407407407,110.88888888888884,0)" xlink:href="#B"/></g><path fill="#333" d="M186 0v-106H76V0H24v-248h52v99h110v-99h50V0h-50" id="Y"/><g id="q"><use transform="matrix(0.09259259259259256,0,0,0.09259259259259256,0,0)" xlink:href="#Y"/><use transform="matrix(0.09259259259259256,0,0,0.09259259259259256,23.981481481481474,0)" xlink:href="#E"/><use transform="matrix(0.09259259259259256,0,0,0.09259259259259256,47.96296296296295,0)" xlink:href="#I"/></g></defs></g></svg>