<svg xmlns="http://www.w3.org/2000/svg" xmlns:xlink="http://www.w3.org/1999/xlink" xmlns:lucid="lucid" width="1300" height="1160"><g transform="translate(-240 -80)" lucid:page-tab-id="0_0"><path d="M0 0h1870.87v1322.83H0z" fill="#fff"/><path d="M260 226c0-3.3 2.7-6 6-6h1248c3.3 0 6 2.7 6 6v988c0 3.3-2.7 6-6 6H266c-3.3 0-6-2.7-6-6z" stroke="#5e5e5e" stroke-width="3" fill="#fff"/><path d="M260 106c0-3.3 2.7-6 6-6h488c3.3 0 6 2.7 6 6v108c0 3.3-2.7 6-6 6H266c-3.3 0-6-2.7-6-6z" stroke="#5e5e5e" stroke-width="3" fill="#ccc"/><use xlink:href="#a" transform="matrix(1,0,0,1,272,112) translate(10.444444444444514 55.444444444444436)"/><use xlink:href="#b" transform="matrix(1,0,0,1,272,112) translate(149.30864197530866 55.444444444444436)"/><use xlink:href="#c" transform="matrix(1,0,0,1,272,112) translate(357.2098765432098 55.444444444444436)"/><path d="M360 1086c0-3.3 2.7-6 6-6h1048c3.3 0 6 2.7 6 6v108c0 3.3-2.7 6-6 6H366c-3.3 0-6-2.7-6-6z" stroke="#5e5e5e" stroke-width="3" fill="#fff"/><use xlink:href="#d" transform="matrix(1,0,0,1,372,1092) translate(385.4567901234568 55.444444444444436)"/><use xlink:href="#e" transform="matrix(1,0,0,1,372,1092) translate(520.5679012345679 55.444444444444436)"/><path d="M360 906c0-3.3 2.7-6 6-6h808c3.3 0 6 2.7 6 6v108c0 3.3-2.7 6-6 6H366c-3.3 0-6-2.7-6-6z" stroke="#5e5e5e" stroke-width="3" fill="#fff"/><use xlink:href="#f" transform="matrix(1,0,0,1,372,912) translate(272.27160493827165 55.444444444444436)"/><use xlink:href="#g" transform="matrix(1,0,0,1,372,912) translate(381.9012345679012 55.444444444444436)"/><path d="M1180 906c0-3.3 2.7-6 6-6h228c3.3 0 6 2.7 6 6v108c0 3.3-2.7 6-6 6h-228c-3.3 0-6-2.7-6-6z" stroke="#5e5e5e" stroke-width="3" fill="#fff"/><use xlink:href="#h" transform="matrix(1,0,0,1,1192,912) translate(21.40740740740742 36.33333333333333)"/><use xlink:href="#i" transform="matrix(1,0,0,1,1192,912) translate(84.22222222222223 36.33333333333333)"/><use xlink:href="#j" transform="matrix(1,0,0,1,1192,912) translate(119.03703703703704 36.33333333333333)"/><use xlink:href="#k" transform="matrix(1,0,0,1,1192,912) translate(54.814814814814824 68.33333333333333)"/><path d="M360 746c0-3.3 2.7-6 6-6h348c3.3 0 6 2.7 6 6v108c0 3.3-2.7 6-6 6H366c-3.3 0-6-2.7-6-6z" stroke="#5e5e5e" stroke-width="3" fill="#fff"/><use xlink:href="#l" transform="matrix(1,0,0,1,372,752) translate(3.308641975308717 55.444444444444436)"/><use xlink:href="#m" transform="matrix(1,0,0,1,372,752) translate(100.98765432098769 55.444444444444436)"/><use xlink:href="#n" transform="matrix(1,0,0,1,372,752) translate(177.03703703703704 55.444444444444436)"/><path d="M740 746c0-3.3 2.7-6 6-6h428c3.3 0 6 2.7 6 6v108c0 3.3-2.7 6-6 6H746c-3.3 0-6-2.7-6-6z" stroke="#5e5e5e" stroke-width="3" fill="#fff"/><use xlink:href="#o" transform="matrix(1,0,0,1,752,752) translate(27.283950617284034 35.1111111111111)"/><use xlink:href="#p" transform="matrix(1,0,0,1,752,752) translate(137.06172839506178 35.1111111111111)"/><use xlink:href="#q" transform="matrix(1,0,0,1,752,752) translate(214.74074074074073 35.1111111111111)"/><use xlink:href="#r" transform="matrix(1,0,0,1,752,752) translate(320.5061728395061 35.1111111111111)"/><use xlink:href="#s" transform="matrix(1,0,0,1,752,752) translate(105.84567901234571 69.77777777777774)"/><use xlink:href="#t" transform="matrix(1,0,0,1,752,752) translate(194.91975308641975 69.77777777777774)"/><path d="M360 286c0-3.3 2.7-6 6-6h588c3.3 0 6 2.7 6 6v148c0 3.3-2.7 6-6 6H366c-3.3 0-6-2.7-6-6z" stroke="#5e5e5e" stroke-width="3" fill="#fff"/><use xlink:href="#u" transform="matrix(1,0,0,1,372,292) translate(235.80246913580248 75.19444444444443)"/><path d="M1040 286c0-3.3 2.7-6 6-6h348c3.3 0 6 2.7 6 6v148c0 3.3-2.7 6-6 6h-348c-3.3 0-6-2.7-6-6z" stroke="#5e5e5e" stroke-width="3" fill="#fff"/><use xlink:href="#v" transform="matrix(1,0,0,1,1052,292) translate(71.75308641975312 75.19444444444443)"/><use xlink:href="#w" transform="matrix(1,0,0,1,1052,292) translate(150.76543209876544 75.19444444444443)"/><path d="M360 506c0-3.3 2.7-6 6-6h348c3.3 0 6 2.7 6 6v148c0 3.3-2.7 6-6 6H366c-3.3 0-6-2.7-6-6z" stroke="#5e5e5e" stroke-width="3" fill="#fff"/><use xlink:href="#x" transform="matrix(1,0,0,1,372,512) translate(46.37037037037041 53.944444444444436)"/><use xlink:href="#y" transform="matrix(1,0,0,1,372,512) translate(159.65432098765433 53.944444444444436)"/><use xlink:href="#z" transform="matrix(1,0,0,1,372,512) translate(120.74074074074076 96.61111111111109)"/><path d="M548 897.5V880" stroke="#5e5e5e" stroke-width="2" fill="none"/><path d="M549 898.5h-2v-1.03h2z" fill="#5e5e5e"/><path d="M548 864.74l4.64 14.26h-9.28z" stroke="#5e5e5e" stroke-width="2" fill="#5e5e5e"/><path d="M962.67 897.5V880" stroke="#5e5e5e" stroke-width="2" fill="none"/><path d="M963.67 898.5h-2v-1.03h2z" fill="#5e5e5e"/><path d="M962.67 864.74L967.3 879h-9.27z" stroke="#5e5e5e" stroke-width="2" fill="#5e5e5e"/><path d="M772 1077.5V1040" stroke="#5e5e5e" stroke-width="2" fill="none"/><path d="M773 1078.5h-2v-1.03h2z" fill="#5e5e5e"/><path d="M772 1024.74l4.64 14.26h-9.28z" stroke="#5e5e5e" stroke-width="2" fill="#5e5e5e"/><path d="M1304 1077.5V1040" stroke="#5e5e5e" stroke-width="2" fill="none"/><path d="M1305 1078.5h-2v-1.03h2z" fill="#5e5e5e"/><path d="M1304 1024.74l4.64 14.26h-9.28z" stroke="#5e5e5e" stroke-width="2" fill="#5e5e5e"/><path d="M540 737.5v-59" stroke="#5e5e5e" stroke-width="2" fill="none"/><path d="M541 738.5h-2v-1.03h2z" fill="#5e5e5e"/><path d="M540 663.24l4.64 14.26h-9.28z" stroke="#5e5e5e" stroke-width="2" fill="#5e5e5e"/><path d="M540 497.5V460" stroke="#5e5e5e" stroke-width="2" fill="none"/><path d="M541 498.5h-2v-1.03h2z" fill="#5e5e5e"/><path d="M540 444.74l4.64 14.26h-9.28z" stroke="#5e5e5e" stroke-width="2" fill="#5e5e5e"/><path d="M843.67 737.5h-2V564h2zm0-200.17h-2V460h2z" fill="#5e5e5e"/><path d="M843.67 738.5h-2v-1.03h2zM847.3 459h-9.27l4.64-14.26z" fill="#5e5e5e"/><path d="M848.68 460h-12.03l6.02-18.5zm-9.27-2h6.53l-3.26-10.03z" fill="#5e5e5e"/><g><use xlink:href="#A" transform="matrix(1,0,0,1,754.8271604938271,537.3333333333333) translate(0 17.77777777777778)"/><use xlink:href="#B" transform="matrix(1,0,0,1,754.8271604938271,537.3333333333333) translate(89.32098765432099 17.77777777777778)"/></g><path d="M1221 584.13l-.92 3.42-2.53 2.53-3.42.92h-77.33l-2.64.7-1.78 1.8-.7 2.63V737.5h-2V595.87l.9-3.42 2.54-2.53 3.4-.92h77.35l2.64-.7 1.8-1.8.7-2.63v-50.54h2zm0-80.13h-2v-44h2z" fill="#5e5e5e"/><path d="M1131.67 738.5h-2v-1.03h2zM1224.64 459h-9.28l4.64-14.26z" fill="#5e5e5e"/><path d="M1226 460h-12l6-18.5zm-9.26-2h6.52l-3.26-10.03z" fill="#5e5e5e"/><g><use xlink:href="#C" transform="matrix(1,0,0,1,1111.7993827160494,503.99999999999994) translate(0 19.555555555555557)"/><use xlink:href="#D" transform="matrix(1,0,0,1,1111.7993827160494,503.99999999999994) translate(54.32098765432099 19.555555555555557)"/><use xlink:href="#E" transform="matrix(1,0,0,1,1111.7993827160494,503.99999999999994) translate(121.4074074074074 19.555555555555557)"/></g><defs><path fill="#333" d="M155 0h-10L58-199v181l32 5V0H6v-13l30-5v-200l-30-5v-13h93l67 155 69-155h94v13l-30 5v200l30 5V0H212v-13l32-5v-181" id="F"/><path fill="#333" d="M12-83c0-55 22-85 75-86 52-1 66 33 63 88H64c-1 37 6 64 44 63 14 0 28-4 39-6 3 28-28 25-55 27-57 4-80-31-80-86zm90-17c2-26 0-63-27-48-10 9-11 28-11 48h38" id="G"/><path fill="#333" d="M126-114c3-31-27-37-49-25v123l15 4V0H10v-12l16-4v-133l-16-5v-11h64l2 14c24-16 81-33 96 3 30-24 105-39 105 27v105l17 4V0h-82v-12l14-4v-98c4-33-27-37-51-24 5 35 0 82 2 122l17 4V0h-83v-12l15-4v-98" id="H"/><path fill="#333" d="M90-170c54-1 76 32 76 87 1 56-23 87-77 87-53 0-75-32-75-87s23-86 76-87zM89-14c28-2 26-38 26-69s3-69-26-69c-27 0-24 39-24 69s-3 66 24 69" id="I"/><path fill="#333" d="M132-132c-21 0-37 9-50 16v100l26 4V0H10v-12l21-4v-133l-21-5v-11h69l2 34c17-18 35-41 71-40v61c-17 3-14-14-20-22" id="J"/><path fill="#333" d="M81 5L15-149c-7-2-13-5-11-16h84v11l-20 5 39 91 35-91-19-5v-11h53c2 11-4 13-11 15C134-81 111-5 75 58 65 77 34 83 8 74V32h11c0 24 29 35 43 12 7-11 13-25 19-39" id="K"/><g id="a"><use transform="matrix(0.0987654320987654,0,0,0.0987654320987654,0,0)" xlink:href="#F"/><use transform="matrix(0.0987654320987654,0,0,0.0987654320987654,33.48148148148147,0)" xlink:href="#G"/><use transform="matrix(0.0987654320987654,0,0,0.0987654320987654,49.18518518518516,0)" xlink:href="#H"/><use transform="matrix(0.0987654320987654,0,0,0.0987654320987654,78.71604938271602,0)" xlink:href="#I"/><use transform="matrix(0.0987654320987654,0,0,0.0987654320987654,96.4938271604938,0)" xlink:href="#J"/><use transform="matrix(0.0987654320987654,0,0,0.0987654320987654,112.19753086419749,0)" xlink:href="#K"/></g><path fill="#333" d="M31-163c51-5 127-20 127 40v107l17 4V0h-61l-4-13C82 13 12 12 12-46c0-51 46-52 95-53 9-45-22-69-57-44l-7 20H31v-40zM62-47c0 30 26 34 45 23v-59c-28 0-45 6-45 36" id="L"/><path fill="#333" d="M127-114c3-31-26-38-50-25v123l15 4V0H10v-12l16-4v-133l-16-5v-11h64l2 14c31-23 102-32 102 30v105l17 4V0h-82v-12l14-4v-98" id="M"/><path fill="#333" d="M9 41c2-18 18-26 32-33C29 1 16-9 16-28l29-33c-21-9-31-25-31-51-2-56 61-65 111-53l39-20c13 12-9 24-14 36 35 54-17 114-90 92-17 34 27 28 56 28 36-1 61 12 60 46-2 46-39 62-91 62-38 0-71-6-76-38zm35-3c6 35 97 29 94-9-2-28-50-14-78-17-8 7-15 14-16 26zm20-150c0 22 4 40 23 40 20 0 24-17 24-40 0-24-4-40-24-40-19 0-23 17-23 40" id="N"/><path fill="#333" d="M78-41c-2 24 21 26 40 20C122 3 98 2 77 4 5 10 32-84 27-147H6v-11l25-7 21-38h26v38h35v18H78v106" id="O"/><g id="b"><use transform="matrix(0.0987654320987654,0,0,0.0987654320987654,0,0)" xlink:href="#F"/><use transform="matrix(0.0987654320987654,0,0,0.0987654320987654,33.48148148148147,0)" xlink:href="#L"/><use transform="matrix(0.0987654320987654,0,0,0.0987654320987654,51.259259259259245,0)" xlink:href="#M"/><use transform="matrix(0.0987654320987654,0,0,0.0987654320987654,71.01234567901231,0)" xlink:href="#L"/><use transform="matrix(0.0987654320987654,0,0,0.0987654320987654,88.79012345679008,0)" xlink:href="#N"/><use transform="matrix(0.0987654320987654,0,0,0.0987654320987654,106.56790123456787,0)" xlink:href="#G"/><use transform="matrix(0.0987654320987654,0,0,0.0987654320987654,122.27160493827154,0)" xlink:href="#H"/><use transform="matrix(0.0987654320987654,0,0,0.0987654320987654,151.8024691358024,0)" xlink:href="#G"/><use transform="matrix(0.0987654320987654,0,0,0.0987654320987654,167.5061728395061,0)" xlink:href="#M"/><use transform="matrix(0.0987654320987654,0,0,0.0987654320987654,187.25925925925918,0)" xlink:href="#O"/></g><path fill="#333" d="M185-72C185 13 82 14 19-9v-63h16c2 37 21 58 61 58 46 0 69-51 31-71-42-23-106-23-106-90 0-69 87-70 148-56v56h-16l-7-32c-26-25-110-13-82 35 39 34 121 26 121 100" id="P"/><path fill="#333" d="M102-142c-14-17-68-15-54 18 24 26 83 17 83 72 0 62-72 62-120 47v-45h12c4 23 16 37 43 37 35 0 39-37 9-46-31-9-65-19-64-61 0-52 59-55 108-45v43h-11" id="Q"/><g id="c"><use transform="matrix(0.0987654320987654,0,0,0.0987654320987654,0,0)" xlink:href="#P"/><use transform="matrix(0.0987654320987654,0,0,0.0987654320987654,19.753086419753078,0)" xlink:href="#K"/><use transform="matrix(0.0987654320987654,0,0,0.0987654320987654,37.530864197530846,0)" xlink:href="#Q"/><use transform="matrix(0.0987654320987654,0,0,0.0987654320987654,51.358024691358004,0)" xlink:href="#O"/><use transform="matrix(0.0987654320987654,0,0,0.0987654320987654,63.11111111111109,0)" xlink:href="#G"/><use transform="matrix(0.0987654320987654,0,0,0.0987654320987654,78.81481481481478,0)" xlink:href="#H"/></g><path fill="#333" d="M92-112c43 4 61-13 61-54s-18-54-61-50v104zm118-54c0 63-50 78-118 74v74l39 5V0H8v-13l28-5v-200l-30-5v-13c88 3 205-20 204 70" id="R"/><path fill="#333" d="M127-114c3-31-26-38-50-25v123l15 4V0H10v-12l16-4v-218l-17-4v-12h68l-1 99c31-23 102-32 102 30v105l17 4V0h-82v-12l14-4v-98" id="S"/><path fill="#333" d="M77-16l18 4V0H8v-12l18-4v-133l-17-5v-11h68v149zM51-196c-16 0-27-10-27-27s10-27 27-27 27 11 27 27c0 17-10 27-27 27" id="T"/><path fill="#333" d="M109-18c15 0 31-2 42-6v14c-11 9-31 13-51 13-59 0-86-28-88-86-3-75 66-101 135-80v48h-13c-3-20-7-40-34-37-51 7-55 138 9 134" id="U"/><path fill="#333" d="M76-16l18 4V0H7v-12l18-4v-218l-17-4v-12h68v234" id="V"/><g id="d"><use transform="matrix(0.0987654320987654,0,0,0.0987654320987654,0,0)" xlink:href="#R"/><use transform="matrix(0.0987654320987654,0,0,0.0987654320987654,21.629629629629623,0)" xlink:href="#S"/><use transform="matrix(0.0987654320987654,0,0,0.0987654320987654,41.3827160493827,0)" xlink:href="#K"/><use transform="matrix(0.0987654320987654,0,0,0.0987654320987654,59.16049382716047,0)" xlink:href="#Q"/><use transform="matrix(0.0987654320987654,0,0,0.0987654320987654,72.98765432098763,0)" xlink:href="#T"/><use transform="matrix(0.0987654320987654,0,0,0.0987654320987654,82.86419753086417,0)" xlink:href="#U"/><use transform="matrix(0.0987654320987654,0,0,0.0987654320987654,98.56790123456787,0)" xlink:href="#L"/><use transform="matrix(0.0987654320987654,0,0,0.0987654320987654,116.34567901234564,0)" xlink:href="#V"/></g><g id="e"><use transform="matrix(0.0987654320987654,0,0,0.0987654320987654,0,0)" xlink:href="#F"/><use transform="matrix(0.0987654320987654,0,0,0.0987654320987654,33.48148148148147,0)" xlink:href="#G"/><use transform="matrix(0.0987654320987654,0,0,0.0987654320987654,49.18518518518516,0)" xlink:href="#H"/><use transform="matrix(0.0987654320987654,0,0,0.0987654320987654,78.71604938271602,0)" xlink:href="#I"/><use transform="matrix(0.0987654320987654,0,0,0.0987654320987654,96.4938271604938,0)" xlink:href="#J"/><use transform="matrix(0.0987654320987654,0,0,0.0987654320987654,112.19753086419749,0)" xlink:href="#K"/></g><path fill="#333" d="M92-134c39 3 62-4 62-44 0-37-25-40-62-38v82zm0 115c49 5 80-2 80-50 0-44-34-49-80-46v96zm138-50C230 26 101-4 6 0v-13l30-5v-200l-30-5v-13c79 7 206-26 206 54 0 33-22 49-49 56 39 3 67 18 67 57" id="W"/><path fill="#333" d="M73-51c-3 31 27 38 51 25v-123l-16-5v-11h66v149l17 4V0h-65l-2-14C94 9 22 18 22-44v-105l-17-5v-11h68v114" id="X"/><path fill="#333" d="M15-82c-4-69 47-101 113-83l-1-69-17-4v-12h68v234l18 4V0h-63l-4-9C77 23 5-9 15-82zm112-66c-43-16-64 17-61 65 2 33 3 67 32 67 12 0 22-3 29-8v-124" id="Y"/><g id="f"><use transform="matrix(0.0987654320987654,0,0,0.0987654320987654,0,0)" xlink:href="#W"/><use transform="matrix(0.0987654320987654,0,0,0.0987654320987654,23.703703703703695,0)" xlink:href="#X"/><use transform="matrix(0.0987654320987654,0,0,0.0987654320987654,43.45679012345677,0)" xlink:href="#Y"/><use transform="matrix(0.0987654320987654,0,0,0.0987654320987654,63.209876543209845,0)" xlink:href="#Y"/><use transform="matrix(0.0987654320987654,0,0,0.0987654320987654,82.96296296296292,0)" xlink:href="#K"/></g><path fill="#333" d="M75-13V0H4v-13l17-5 84-220h51l83 220 18 5V0H152v-13l28-5-23-61H67L45-18zm38-189L74-98h76" id="Z"/><g id="g"><use transform="matrix(0.0987654320987654,0,0,0.0987654320987654,0,0)" xlink:href="#Z"/><use transform="matrix(0.0987654320987654,0,0,0.0987654320987654,25.58024691358024,0)" xlink:href="#V"/><use transform="matrix(0.0987654320987654,0,0,0.0987654320987654,35.45679012345678,0)" xlink:href="#V"/><use transform="matrix(0.0987654320987654,0,0,0.0987654320987654,45.333333333333314,0)" xlink:href="#I"/><use transform="matrix(0.0987654320987654,0,0,0.0987654320987654,63.11111111111109,0)" xlink:href="#U"/><use transform="matrix(0.0987654320987654,0,0,0.0987654320987654,78.81481481481478,0)" xlink:href="#L"/><use transform="matrix(0.0987654320987654,0,0,0.0987654320987654,96.59259259259255,0)" xlink:href="#O"/><use transform="matrix(0.0987654320987654,0,0,0.0987654320987654,108.34567901234564,0)" xlink:href="#I"/><use transform="matrix(0.0987654320987654,0,0,0.0987654320987654,126.12345679012341,0)" xlink:href="#J"/></g><path fill="#333" d="M91-218c7 77-29 197 56 197 84 0 47-121 55-197l-31-5v-13h80v13l-27 5v137c-1 56-32 84-91 84-59-1-96-26-97-85v-136l-27-5v-13h112v13" id="aa"/><g id="h"><use transform="matrix(0.07407407407407407,0,0,0.07407407407407407,0,0)" xlink:href="#aa"/><use transform="matrix(0.07407407407407407,0,0,0.07407407407407407,19.185185185185183,0)" xlink:href="#Q"/><use transform="matrix(0.07407407407407407,0,0,0.07407407407407407,29.555555555555554,0)" xlink:href="#G"/><use transform="matrix(0.07407407407407407,0,0,0.07407407407407407,41.33333333333333,0)" xlink:href="#Y"/></g><path fill="#333" d="M72-18c49 15 64-22 62-69-1-34-4-62-34-63-10-1-23 2-28 6v126zm33 22C77 4 48-3 21-8v-226l-16-4v-12h67c-1 31 2 66-2 94 11-8 28-14 47-14 51 0 70 31 69 83-1 55-26 91-81 91" id="ab"/><g id="i"><use transform="matrix(0.07407407407407407,0,0,0.07407407407407407,0,0)" xlink:href="#ab"/><use transform="matrix(0.07407407407407407,0,0,0.07407407407407407,14.814814814814813,0)" xlink:href="#K"/></g><g id="j"><use transform="matrix(0.07407407407407407,0,0,0.07407407407407407,0,0)" xlink:href="#W"/><use transform="matrix(0.07407407407407407,0,0,0.07407407407407407,17.77777777777778,0)" xlink:href="#X"/><use transform="matrix(0.07407407407407407,0,0,0.07407407407407407,32.592592592592595,0)" xlink:href="#Y"/><use transform="matrix(0.07407407407407407,0,0,0.07407407407407407,47.407407407407405,0)" xlink:href="#Y"/><use transform="matrix(0.07407407407407407,0,0,0.07407407407407407,62.22222222222221,0)" xlink:href="#K"/></g><g id="k"><use transform="matrix(0.07407407407407407,0,0,0.07407407407407407,0,0)" xlink:href="#Z"/><use transform="matrix(0.07407407407407407,0,0,0.07407407407407407,19.185185185185183,0)" xlink:href="#V"/><use transform="matrix(0.07407407407407407,0,0,0.07407407407407407,26.592592592592588,0)" xlink:href="#V"/><use transform="matrix(0.07407407407407407,0,0,0.07407407407407407,33.99999999999999,0)" xlink:href="#I"/><use transform="matrix(0.07407407407407407,0,0,0.07407407407407407,47.33333333333333,0)" xlink:href="#U"/><use transform="matrix(0.07407407407407407,0,0,0.07407407407407407,59.11111111111111,0)" xlink:href="#L"/><use transform="matrix(0.07407407407407407,0,0,0.07407407407407407,72.44444444444444,0)" xlink:href="#O"/><use transform="matrix(0.07407407407407407,0,0,0.07407407407407407,81.25925925925925,0)" xlink:href="#I"/><use transform="matrix(0.07407407407407407,0,0,0.07407407407407407,94.59259259259258,0)" xlink:href="#J"/></g><g id="l"><use transform="matrix(0.0987654320987654,0,0,0.0987654320987654,0,0)" xlink:href="#F"/><use transform="matrix(0.0987654320987654,0,0,0.0987654320987654,33.48148148148147,0)" xlink:href="#L"/><use transform="matrix(0.0987654320987654,0,0,0.0987654320987654,51.259259259259245,0)" xlink:href="#M"/><use transform="matrix(0.0987654320987654,0,0,0.0987654320987654,71.01234567901231,0)" xlink:href="#K"/></g><g id="m"><use transform="matrix(0.0987654320987654,0,0,0.0987654320987654,0,0)" xlink:href="#P"/><use transform="matrix(0.0987654320987654,0,0,0.0987654320987654,19.753086419753078,0)" xlink:href="#V"/><use transform="matrix(0.0987654320987654,0,0,0.0987654320987654,29.62962962962962,0)" xlink:href="#I"/><use transform="matrix(0.0987654320987654,0,0,0.0987654320987654,47.40740740740739,0)" xlink:href="#ab"/></g><g id="n"><use transform="matrix(0.0987654320987654,0,0,0.0987654320987654,0,0)" xlink:href="#Z"/><use transform="matrix(0.0987654320987654,0,0,0.0987654320987654,25.58024691358024,0)" xlink:href="#V"/><use transform="matrix(0.0987654320987654,0,0,0.0987654320987654,35.45679012345678,0)" xlink:href="#V"/><use transform="matrix(0.0987654320987654,0,0,0.0987654320987654,45.333333333333314,0)" xlink:href="#I"/><use transform="matrix(0.0987654320987654,0,0,0.0987654320987654,63.11111111111109,0)" xlink:href="#U"/><use transform="matrix(0.0987654320987654,0,0,0.0987654320987654,78.81481481481478,0)" xlink:href="#L"/><use transform="matrix(0.0987654320987654,0,0,0.0987654320987654,96.59259259259255,0)" xlink:href="#O"/><use transform="matrix(0.0987654320987654,0,0,0.0987654320987654,108.34567901234564,0)" xlink:href="#I"/><use transform="matrix(0.0987654320987654,0,0,0.0987654320987654,126.12345679012341,0)" xlink:href="#J"/><use transform="matrix(0.0987654320987654,0,0,0.0987654320987654,141.8271604938271,0)" xlink:href="#Q"/></g><g id="o"><use transform="matrix(0.08024691358024688,0,0,0.08024691358024688,0,0)" xlink:href="#R"/><use transform="matrix(0.08024691358024688,0,0,0.08024691358024688,17.574074074074066,0)" xlink:href="#S"/><use transform="matrix(0.08024691358024688,0,0,0.08024691358024688,33.62345679012344,0)" xlink:href="#K"/><use transform="matrix(0.08024691358024688,0,0,0.08024691358024688,48.067901234567884,0)" xlink:href="#Q"/><use transform="matrix(0.08024691358024688,0,0,0.08024691358024688,59.30246913580245,0)" xlink:href="#T"/><use transform="matrix(0.08024691358024688,0,0,0.08024691358024688,67.32716049382714,0)" xlink:href="#U"/><use transform="matrix(0.08024691358024688,0,0,0.08024691358024688,80.08641975308639,0)" xlink:href="#L"/><use transform="matrix(0.08024691358024688,0,0,0.08024691358024688,94.53086419753083,0)" xlink:href="#V"/></g><g id="p"><use transform="matrix(0.08024691358024688,0,0,0.08024691358024688,0,0)" xlink:href="#R"/><use transform="matrix(0.08024691358024688,0,0,0.08024691358024688,17.574074074074066,0)" xlink:href="#L"/><use transform="matrix(0.08024691358024688,0,0,0.08024691358024688,32.018518518518505,0)" xlink:href="#N"/><use transform="matrix(0.08024691358024688,0,0,0.08024691358024688,46.46296296296295,0)" xlink:href="#G"/><use transform="matrix(0.08024691358024688,0,0,0.08024691358024688,59.2222222222222,0)" xlink:href="#Q"/></g><path fill="#333" d="M92-20c74 11 92-29 92-98 0-66-23-103-92-98v196zm150-99C242 9 136 6 6 0v-13l31-5v-200l-31-5v-13h112c81 0 124 34 124 117" id="ac"/><g id="q"><use transform="matrix(0.08024691358024688,0,0,0.08024691358024688,0,0)" xlink:href="#ac"/><use transform="matrix(0.08024691358024688,0,0,0.08024691358024688,20.783950617283942,0)" xlink:href="#T"/><use transform="matrix(0.08024691358024688,0,0,0.08024691358024688,28.808641975308632,0)" xlink:href="#J"/><use transform="matrix(0.08024691358024688,0,0,0.08024691358024688,41.006172839506156,0)" xlink:href="#G"/><use transform="matrix(0.08024691358024688,0,0,0.08024691358024688,53.76543209876541,0)" xlink:href="#U"/><use transform="matrix(0.08024691358024688,0,0,0.08024691358024688,66.52469135802467,0)" xlink:href="#O"/><use transform="matrix(0.08024691358024688,0,0,0.08024691358024688,76.07407407407405,0)" xlink:href="#V"/><use transform="matrix(0.08024691358024688,0,0,0.08024691358024688,84.09876543209873,0)" xlink:href="#K"/></g><path fill="#333" d="M92-101v83l39 5V0H8v-13l28-5v-200l-30-5v-13h197v64h-17l-5-42c-27-3-59-2-89-2v96h57l6-30h15v80h-15l-6-31H92" id="ad"/><g id="r"><use transform="matrix(0.08024691358024688,0,0,0.08024691358024688,0,0)" xlink:href="#ad"/><use transform="matrix(0.08024691358024688,0,0,0.08024691358024688,17.574074074074066,0)" xlink:href="#J"/><use transform="matrix(0.08024691358024688,0,0,0.08024691358024688,29.771604938271594,0)" xlink:href="#I"/><use transform="matrix(0.08024691358024688,0,0,0.08024691358024688,44.216049382716044,0)" xlink:href="#H"/></g><g id="s"><use transform="matrix(0.08024691358024688,0,0,0.08024691358024688,0,0)" xlink:href="#W"/><use transform="matrix(0.08024691358024688,0,0,0.08024691358024688,19.259259259259252,0)" xlink:href="#X"/><use transform="matrix(0.08024691358024688,0,0,0.08024691358024688,35.30864197530863,0)" xlink:href="#Y"/><use transform="matrix(0.08024691358024688,0,0,0.08024691358024688,51.35802469135801,0)" xlink:href="#Y"/><use transform="matrix(0.08024691358024688,0,0,0.08024691358024688,67.40740740740739,0)" xlink:href="#K"/></g><g id="t"><use transform="matrix(0.08024691358024688,0,0,0.08024691358024688,0,0)" xlink:href="#Z"/><use transform="matrix(0.08024691358024688,0,0,0.08024691358024688,20.783950617283942,0)" xlink:href="#V"/><use transform="matrix(0.08024691358024688,0,0,0.08024691358024688,28.808641975308632,0)" xlink:href="#V"/><use transform="matrix(0.08024691358024688,0,0,0.08024691358024688,36.83333333333332,0)" xlink:href="#I"/><use transform="matrix(0.08024691358024688,0,0,0.08024691358024688,51.27777777777776,0)" xlink:href="#U"/><use transform="matrix(0.08024691358024688,0,0,0.08024691358024688,64.03703703703701,0)" xlink:href="#L"/><use transform="matrix(0.08024691358024688,0,0,0.08024691358024688,78.48148148148145,0)" xlink:href="#O"/><use transform="matrix(0.08024691358024688,0,0,0.08024691358024688,88.03086419753083,0)" xlink:href="#I"/><use transform="matrix(0.08024691358024688,0,0,0.08024691358024688,102.47530864197526,0)" xlink:href="#J"/></g><path fill="#333" d="M258-236v13l-29 5-77 68L255-18l22 5V0h-77l-88-114-20 18v78l34 5V0H6v-13l30-5v-200l-30-5v-13h116v13l-30 5v96l107-96-21-5v-13h80" id="ae"/><g id="u"><use transform="matrix(0.0987654320987654,0,0,0.0987654320987654,0,0)" xlink:href="#ae"/><use transform="matrix(0.0987654320987654,0,0,0.0987654320987654,27.654320987654312,0)" xlink:href="#G"/><use transform="matrix(0.0987654320987654,0,0,0.0987654320987654,43.35802469135801,0)" xlink:href="#J"/><use transform="matrix(0.0987654320987654,0,0,0.0987654320987654,59.06172839506171,0)" xlink:href="#M"/><use transform="matrix(0.0987654320987654,0,0,0.0987654320987654,78.81481481481478,0)" xlink:href="#G"/><use transform="matrix(0.0987654320987654,0,0,0.0987654320987654,94.51851851851848,0)" xlink:href="#V"/></g><g id="v"><use transform="matrix(0.0987654320987654,0,0,0.0987654320987654,0,0)" xlink:href="#aa"/><use transform="matrix(0.0987654320987654,0,0,0.0987654320987654,25.58024691358024,0)" xlink:href="#Q"/><use transform="matrix(0.0987654320987654,0,0,0.0987654320987654,39.4074074074074,0)" xlink:href="#G"/><use transform="matrix(0.0987654320987654,0,0,0.0987654320987654,55.11111111111111,0)" xlink:href="#J"/></g><g id="w"><use transform="matrix(0.0987654320987654,0,0,0.0987654320987654,0,0)" xlink:href="#R"/><use transform="matrix(0.0987654320987654,0,0,0.0987654320987654,21.629629629629623,0)" xlink:href="#J"/><use transform="matrix(0.0987654320987654,0,0,0.0987654320987654,36.64197530864196,0)" xlink:href="#I"/><use transform="matrix(0.0987654320987654,0,0,0.0987654320987654,54.41975308641973,0)" xlink:href="#U"/><use transform="matrix(0.0987654320987654,0,0,0.0987654320987654,70.12345679012343,0)" xlink:href="#G"/><use transform="matrix(0.0987654320987654,0,0,0.0987654320987654,85.82716049382712,0)" xlink:href="#Q"/><use transform="matrix(0.0987654320987654,0,0,0.0987654320987654,99.65432098765427,0)" xlink:href="#Q"/></g><g id="x"><use transform="matrix(0.0987654320987654,0,0,0.0987654320987654,0,0)" xlink:href="#ae"/><use transform="matrix(0.0987654320987654,0,0,0.0987654320987654,27.654320987654312,0)" xlink:href="#G"/><use transform="matrix(0.0987654320987654,0,0,0.0987654320987654,43.35802469135801,0)" xlink:href="#J"/><use transform="matrix(0.0987654320987654,0,0,0.0987654320987654,59.06172839506171,0)" xlink:href="#M"/><use transform="matrix(0.0987654320987654,0,0,0.0987654320987654,78.81481481481478,0)" xlink:href="#G"/><use transform="matrix(0.0987654320987654,0,0,0.0987654320987654,94.51851851851848,0)" xlink:href="#V"/></g><g id="y"><use transform="matrix(0.0987654320987654,0,0,0.0987654320987654,0,0)" xlink:href="#F"/><use transform="matrix(0.0987654320987654,0,0,0.0987654320987654,33.48148148148147,0)" xlink:href="#G"/><use transform="matrix(0.0987654320987654,0,0,0.0987654320987654,49.18518518518516,0)" xlink:href="#H"/><use transform="matrix(0.0987654320987654,0,0,0.0987654320987654,78.71604938271602,0)" xlink:href="#I"/><use transform="matrix(0.0987654320987654,0,0,0.0987654320987654,96.4938271604938,0)" xlink:href="#J"/><use transform="matrix(0.0987654320987654,0,0,0.0987654320987654,112.19753086419749,0)" xlink:href="#K"/></g><path fill="#333" d="M76-116c0 86 71 126 135 84l6-39h16l-1 60C138 21 18 1 18-115c0-117 106-141 210-112l1 57h-16l-5-34c-13-9-32-16-54-16-60 0-78 42-78 104" id="af"/><g id="z"><use transform="matrix(0.0987654320987654,0,0,0.0987654320987654,0,0)" xlink:href="#af"/><use transform="matrix(0.0987654320987654,0,0,0.0987654320987654,25.58024691358024,0)" xlink:href="#L"/><use transform="matrix(0.0987654320987654,0,0,0.0987654320987654,43.35802469135801,0)" xlink:href="#U"/><use transform="matrix(0.0987654320987654,0,0,0.0987654320987654,59.06172839506171,0)" xlink:href="#S"/><use transform="matrix(0.0987654320987654,0,0,0.0987654320987654,78.81481481481478,0)" xlink:href="#G"/></g><path fill="#333" d="M98-18l30 5V0H12v-13l30-5v-200l-30-5v-13h116v13l-30 5v200" id="ag"/><g id="A"><use transform="matrix(0.06172839506172839,0,0,0.06172839506172839,0,0)" xlink:href="#ag"/><use transform="matrix(0.06172839506172839,0,0,0.06172839506172839,8.641975308641975,0)" xlink:href="#Y"/><use transform="matrix(0.06172839506172839,0,0,0.06172839506172839,20.98765432098765,0)" xlink:href="#G"/><use transform="matrix(0.06172839506172839,0,0,0.06172839506172839,30.80246913580247,0)" xlink:href="#M"/><use transform="matrix(0.06172839506172839,0,0,0.06172839506172839,43.148148148148145,0)" xlink:href="#O"/><use transform="matrix(0.06172839506172839,0,0,0.06172839506172839,50.49382716049382,0)" xlink:href="#T"/><use transform="matrix(0.06172839506172839,0,0,0.06172839506172839,56.666666666666664,0)" xlink:href="#U"/><use transform="matrix(0.06172839506172839,0,0,0.06172839506172839,66.48148148148148,0)" xlink:href="#L"/><use transform="matrix(0.06172839506172839,0,0,0.06172839506172839,77.5925925925926,0)" xlink:href="#V"/></g><path fill="#333" d="M186-86c2 69-46 103-114 85l1 62 25 4v12H5V65l18-4v-210l-18-5v-11h67v8c12-8 26-13 46-13 49 2 67 30 68 84zm-83 71c28 0 31-33 31-69 0-34-2-66-30-66-12 0-23 3-31 7v124c9 2 20 4 30 4" id="ah"/><g id="B"><use transform="matrix(0.06172839506172839,0,0,0.06172839506172839,0,0)" xlink:href="#F"/><use transform="matrix(0.06172839506172839,0,0,0.06172839506172839,20.925925925925924,0)" xlink:href="#L"/><use transform="matrix(0.06172839506172839,0,0,0.06172839506172839,32.03703703703704,0)" xlink:href="#ah"/><use transform="matrix(0.06172839506172839,0,0,0.06172839506172839,44.382716049382715,0)" xlink:href="#ah"/><use transform="matrix(0.06172839506172839,0,0,0.06172839506172839,56.72839506172839,0)" xlink:href="#T"/><use transform="matrix(0.06172839506172839,0,0,0.06172839506172839,62.901234567901234,0)" xlink:href="#M"/><use transform="matrix(0.06172839506172839,0,0,0.06172839506172839,75.24691358024691,0)" xlink:href="#N"/></g><g id="C"><use transform="matrix(0.06790123456790123,0,0,0.06790123456790123,0,0)" xlink:href="#aa"/><use transform="matrix(0.06790123456790123,0,0,0.06790123456790123,17.586419753086417,0)" xlink:href="#Q"/><use transform="matrix(0.06790123456790123,0,0,0.06790123456790123,27.092592592592588,0)" xlink:href="#G"/><use transform="matrix(0.06790123456790123,0,0,0.06790123456790123,37.888888888888886,0)" xlink:href="#J"/></g><g id="D"><use transform="matrix(0.06790123456790123,0,0,0.06790123456790123,0,0)" xlink:href="#P"/><use transform="matrix(0.06790123456790123,0,0,0.06790123456790123,13.580246913580247,0)" xlink:href="#ah"/><use transform="matrix(0.06790123456790123,0,0,0.06790123456790123,27.160493827160494,0)" xlink:href="#L"/><use transform="matrix(0.06790123456790123,0,0,0.06790123456790123,39.382716049382715,0)" xlink:href="#U"/><use transform="matrix(0.06790123456790123,0,0,0.06790123456790123,50.17901234567901,0)" xlink:href="#G"/></g><g id="E"><use transform="matrix(0.06790123456790123,0,0,0.06790123456790123,0,0)" xlink:href="#F"/><use transform="matrix(0.06790123456790123,0,0,0.06790123456790123,23.018518518518515,0)" xlink:href="#L"/><use transform="matrix(0.06790123456790123,0,0,0.06790123456790123,35.24074074074073,0)" xlink:href="#ah"/><use transform="matrix(0.06790123456790123,0,0,0.06790123456790123,48.82098765432098,0)" xlink:href="#ah"/><use transform="matrix(0.06790123456790123,0,0,0.06790123456790123,62.40123456790122,0)" xlink:href="#T"/><use transform="matrix(0.06790123456790123,0,0,0.06790123456790123,69.19135802469135,0)" xlink:href="#M"/><use transform="matrix(0.06790123456790123,0,0,0.06790123456790123,82.7716049382716,0)" xlink:href="#N"/></g></defs></g></svg>